<mxfile host="app.diagrams.net" agent="Mozilla/5.0 (Macintosh; Intel Mac OS X 10_15_7) AppleWebKit/605.1.15 (KHTML, like Gecko) Version/16.6 Safari/605.1.15" version="24.7.17">
  <diagram name="Page-1" id="74e2e168-ea6b-b213-b513-2b3c1d86103e">
    <mxGraphModel dx="3251" dy="1432" grid="1" gridSize="10" guides="1" tooltips="1" connect="1" arrows="1" fold="1" page="1" pageScale="1" pageWidth="1100" pageHeight="850" background="none" math="0" shadow="0">
      <root>
        <mxCell id="0" />
        <mxCell id="1" parent="0" />
        <mxCell id="yGlVAPs6SAe4qEw8EwWw-267" value="" style="edgeStyle=orthogonalEdgeStyle;rounded=0;orthogonalLoop=1;jettySize=auto;html=1;" edge="1" parent="1" source="yGlVAPs6SAe4qEw8EwWw-1" target="yGlVAPs6SAe4qEw8EwWw-266">
          <mxGeometry relative="1" as="geometry" />
        </mxCell>
        <mxCell id="yGlVAPs6SAe4qEw8EwWw-1" value="&lt;font style=&quot;font-size: 36px;&quot; color=&quot;#ffffff&quot;&gt;Enter Editor Page&lt;/font&gt;" style="rounded=0;whiteSpace=wrap;html=1;fillColor=#F81B1B;strokeColor=#b85450;" vertex="1" parent="1">
          <mxGeometry x="580" y="-410" width="630" height="190" as="geometry" />
        </mxCell>
        <mxCell id="yGlVAPs6SAe4qEw8EwWw-14" value="Project related operations" style="swimlane;" vertex="1" parent="1">
          <mxGeometry x="-1560" y="130" width="2150" height="1950" as="geometry" />
        </mxCell>
        <mxCell id="yGlVAPs6SAe4qEw8EwWw-174" value="" style="group" vertex="1" connectable="0" parent="yGlVAPs6SAe4qEw8EwWw-14">
          <mxGeometry x="650" y="30" width="1325" height="1040" as="geometry" />
        </mxCell>
        <mxCell id="yGlVAPs6SAe4qEw8EwWw-23" value="" style="edgeStyle=orthogonalEdgeStyle;rounded=0;orthogonalLoop=1;jettySize=auto;html=1;" edge="1" parent="yGlVAPs6SAe4qEw8EwWw-174" source="yGlVAPs6SAe4qEw8EwWw-4" target="yGlVAPs6SAe4qEw8EwWw-22">
          <mxGeometry relative="1" as="geometry" />
        </mxCell>
        <mxCell id="yGlVAPs6SAe4qEw8EwWw-4" value="Open a file dialog to let user choose a file" style="whiteSpace=wrap;html=1;rounded=0;" vertex="1" parent="yGlVAPs6SAe4qEw8EwWw-174">
          <mxGeometry x="955" y="10" width="120" height="60" as="geometry" />
        </mxCell>
        <mxCell id="yGlVAPs6SAe4qEw8EwWw-5" value="" style="edgeStyle=orthogonalEdgeStyle;rounded=0;orthogonalLoop=1;jettySize=auto;html=1;" edge="1" parent="yGlVAPs6SAe4qEw8EwWw-174" source="yGlVAPs6SAe4qEw8EwWw-2" target="yGlVAPs6SAe4qEw8EwWw-4">
          <mxGeometry relative="1" as="geometry" />
        </mxCell>
        <mxCell id="yGlVAPs6SAe4qEw8EwWw-6" value="Yes" style="edgeLabel;html=1;align=center;verticalAlign=middle;resizable=0;points=[];" vertex="1" connectable="0" parent="yGlVAPs6SAe4qEw8EwWw-5">
          <mxGeometry x="-0.2909" y="-1" relative="1" as="geometry">
            <mxPoint as="offset" />
          </mxGeometry>
        </mxCell>
        <mxCell id="yGlVAPs6SAe4qEw8EwWw-8" value="" style="edgeStyle=orthogonalEdgeStyle;rounded=0;orthogonalLoop=1;jettySize=auto;html=1;" edge="1" parent="yGlVAPs6SAe4qEw8EwWw-174" source="yGlVAPs6SAe4qEw8EwWw-2" target="yGlVAPs6SAe4qEw8EwWw-7">
          <mxGeometry relative="1" as="geometry" />
        </mxCell>
        <mxCell id="yGlVAPs6SAe4qEw8EwWw-9" value="No" style="edgeLabel;html=1;align=center;verticalAlign=middle;resizable=0;points=[];" vertex="1" connectable="0" parent="yGlVAPs6SAe4qEw8EwWw-8">
          <mxGeometry x="-0.4216" y="2" relative="1" as="geometry">
            <mxPoint as="offset" />
          </mxGeometry>
        </mxCell>
        <mxCell id="yGlVAPs6SAe4qEw8EwWw-2" value="Open a new file?" style="rhombus;whiteSpace=wrap;html=1;rounded=0;" vertex="1" parent="yGlVAPs6SAe4qEw8EwWw-174">
          <mxGeometry x="1145" width="180" height="80" as="geometry" />
        </mxCell>
        <mxCell id="yGlVAPs6SAe4qEw8EwWw-11" value="" style="edgeStyle=orthogonalEdgeStyle;rounded=0;orthogonalLoop=1;jettySize=auto;html=1;" edge="1" parent="yGlVAPs6SAe4qEw8EwWw-174" source="yGlVAPs6SAe4qEw8EwWw-7" target="yGlVAPs6SAe4qEw8EwWw-10">
          <mxGeometry relative="1" as="geometry" />
        </mxCell>
        <mxCell id="yGlVAPs6SAe4qEw8EwWw-7" value="Import an image?" style="rhombus;whiteSpace=wrap;html=1;rounded=0;" vertex="1" parent="yGlVAPs6SAe4qEw8EwWw-174">
          <mxGeometry x="1145" y="160" width="180" height="80" as="geometry" />
        </mxCell>
        <mxCell id="yGlVAPs6SAe4qEw8EwWw-13" value="" style="edgeStyle=orthogonalEdgeStyle;rounded=0;orthogonalLoop=1;jettySize=auto;html=1;" edge="1" parent="yGlVAPs6SAe4qEw8EwWw-174" source="yGlVAPs6SAe4qEw8EwWw-10" target="yGlVAPs6SAe4qEw8EwWw-12">
          <mxGeometry relative="1" as="geometry" />
        </mxCell>
        <mxCell id="yGlVAPs6SAe4qEw8EwWw-10" value="Save in software?" style="rhombus;whiteSpace=wrap;html=1;rounded=0;" vertex="1" parent="yGlVAPs6SAe4qEw8EwWw-174">
          <mxGeometry x="1145" y="320" width="180" height="80" as="geometry" />
        </mxCell>
        <mxCell id="yGlVAPs6SAe4qEw8EwWw-39" value="" style="edgeStyle=orthogonalEdgeStyle;rounded=0;orthogonalLoop=1;jettySize=auto;html=1;" edge="1" parent="yGlVAPs6SAe4qEw8EwWw-174" source="yGlVAPs6SAe4qEw8EwWw-12" target="yGlVAPs6SAe4qEw8EwWw-38">
          <mxGeometry relative="1" as="geometry" />
        </mxCell>
        <mxCell id="yGlVAPs6SAe4qEw8EwWw-12" value="Export projects of image?" style="rhombus;whiteSpace=wrap;html=1;rounded=0;" vertex="1" parent="yGlVAPs6SAe4qEw8EwWw-174">
          <mxGeometry x="1145" y="480" width="180" height="80" as="geometry" />
        </mxCell>
        <mxCell id="yGlVAPs6SAe4qEw8EwWw-257" value="" style="edgeStyle=orthogonalEdgeStyle;rounded=0;orthogonalLoop=1;jettySize=auto;html=1;" edge="1" parent="yGlVAPs6SAe4qEw8EwWw-174" source="yGlVAPs6SAe4qEw8EwWw-22" target="yGlVAPs6SAe4qEw8EwWw-256">
          <mxGeometry relative="1" as="geometry" />
        </mxCell>
        <mxCell id="yGlVAPs6SAe4qEw8EwWw-22" value="User selected any file?" style="rhombus;whiteSpace=wrap;html=1;rounded=0;" vertex="1" parent="yGlVAPs6SAe4qEw8EwWw-174">
          <mxGeometry x="705" width="150" height="80" as="geometry" />
        </mxCell>
        <mxCell id="yGlVAPs6SAe4qEw8EwWw-26" value="" style="curved=1;endArrow=classic;html=1;rounded=0;exitX=0.5;exitY=1;exitDx=0;exitDy=0;" edge="1" parent="yGlVAPs6SAe4qEw8EwWw-174" source="yGlVAPs6SAe4qEw8EwWw-22" target="yGlVAPs6SAe4qEw8EwWw-2">
          <mxGeometry width="50" height="50" relative="1" as="geometry">
            <mxPoint x="875" y="150" as="sourcePoint" />
            <mxPoint x="1185" y="90" as="targetPoint" />
            <Array as="points">
              <mxPoint x="895" y="120" />
              <mxPoint x="1025" y="110" />
            </Array>
          </mxGeometry>
        </mxCell>
        <mxCell id="yGlVAPs6SAe4qEw8EwWw-27" value="No" style="edgeLabel;html=1;align=center;verticalAlign=middle;resizable=0;points=[];" vertex="1" connectable="0" parent="yGlVAPs6SAe4qEw8EwWw-26">
          <mxGeometry x="-0.8521" y="-1" relative="1" as="geometry">
            <mxPoint as="offset" />
          </mxGeometry>
        </mxCell>
        <mxCell id="yGlVAPs6SAe4qEw8EwWw-31" value="" style="edgeStyle=orthogonalEdgeStyle;rounded=0;orthogonalLoop=1;jettySize=auto;html=1;" edge="1" parent="yGlVAPs6SAe4qEw8EwWw-174" source="yGlVAPs6SAe4qEw8EwWw-28" target="yGlVAPs6SAe4qEw8EwWw-30">
          <mxGeometry relative="1" as="geometry" />
        </mxCell>
        <mxCell id="yGlVAPs6SAe4qEw8EwWw-28" value="Create a new layer for this image" style="whiteSpace=wrap;html=1;rounded=0;" vertex="1" parent="yGlVAPs6SAe4qEw8EwWw-174">
          <mxGeometry x="380" y="10" width="120" height="60" as="geometry" />
        </mxCell>
        <mxCell id="yGlVAPs6SAe4qEw8EwWw-33" value="" style="edgeStyle=orthogonalEdgeStyle;rounded=0;orthogonalLoop=1;jettySize=auto;html=1;" edge="1" parent="yGlVAPs6SAe4qEw8EwWw-174" source="yGlVAPs6SAe4qEw8EwWw-30">
          <mxGeometry relative="1" as="geometry">
            <mxPoint x="130" y="40" as="targetPoint" />
          </mxGeometry>
        </mxCell>
        <mxCell id="yGlVAPs6SAe4qEw8EwWw-30" value="Load image into viewport" style="whiteSpace=wrap;html=1;rounded=0;" vertex="1" parent="yGlVAPs6SAe4qEw8EwWw-174">
          <mxGeometry x="210" y="10" width="120" height="60" as="geometry" />
        </mxCell>
        <mxCell id="yGlVAPs6SAe4qEw8EwWw-41" value="" style="edgeStyle=orthogonalEdgeStyle;rounded=0;orthogonalLoop=1;jettySize=auto;html=1;" edge="1" parent="yGlVAPs6SAe4qEw8EwWw-174" source="yGlVAPs6SAe4qEw8EwWw-38" target="yGlVAPs6SAe4qEw8EwWw-40">
          <mxGeometry relative="1" as="geometry" />
        </mxCell>
        <mxCell id="yGlVAPs6SAe4qEw8EwWw-38" value="Change project name?" style="rhombus;whiteSpace=wrap;html=1;rounded=0;" vertex="1" parent="yGlVAPs6SAe4qEw8EwWw-174">
          <mxGeometry x="1145" y="640" width="180" height="80" as="geometry" />
        </mxCell>
        <mxCell id="yGlVAPs6SAe4qEw8EwWw-43" value="" style="edgeStyle=orthogonalEdgeStyle;rounded=0;orthogonalLoop=1;jettySize=auto;html=1;" edge="1" parent="yGlVAPs6SAe4qEw8EwWw-174" source="yGlVAPs6SAe4qEw8EwWw-40" target="yGlVAPs6SAe4qEw8EwWw-42">
          <mxGeometry relative="1" as="geometry" />
        </mxCell>
        <mxCell id="yGlVAPs6SAe4qEw8EwWw-40" value="Export Viewport?" style="rhombus;whiteSpace=wrap;html=1;rounded=0;" vertex="1" parent="yGlVAPs6SAe4qEw8EwWw-174">
          <mxGeometry x="1145" y="800" width="180" height="80" as="geometry" />
        </mxCell>
        <mxCell id="yGlVAPs6SAe4qEw8EwWw-45" value="" style="edgeStyle=orthogonalEdgeStyle;rounded=0;orthogonalLoop=1;jettySize=auto;html=1;" edge="1" parent="yGlVAPs6SAe4qEw8EwWw-174" source="yGlVAPs6SAe4qEw8EwWw-42" target="yGlVAPs6SAe4qEw8EwWw-44">
          <mxGeometry relative="1" as="geometry" />
        </mxCell>
        <mxCell id="yGlVAPs6SAe4qEw8EwWw-46" value="Yes" style="edgeLabel;html=1;align=center;verticalAlign=middle;resizable=0;points=[];" vertex="1" connectable="0" parent="yGlVAPs6SAe4qEw8EwWw-45">
          <mxGeometry x="-0.538" y="2" relative="1" as="geometry">
            <mxPoint as="offset" />
          </mxGeometry>
        </mxCell>
        <mxCell id="yGlVAPs6SAe4qEw8EwWw-42" value="Close software" style="rhombus;whiteSpace=wrap;html=1;rounded=0;" vertex="1" parent="yGlVAPs6SAe4qEw8EwWw-174">
          <mxGeometry x="1145" y="960" width="180" height="80" as="geometry" />
        </mxCell>
        <mxCell id="yGlVAPs6SAe4qEw8EwWw-44" value="Close Application" style="whiteSpace=wrap;html=1;rounded=0;" vertex="1" parent="yGlVAPs6SAe4qEw8EwWw-174">
          <mxGeometry x="915" y="970" width="120" height="60" as="geometry" />
        </mxCell>
        <mxCell id="yGlVAPs6SAe4qEw8EwWw-173" value="Update Viewport Render" style="whiteSpace=wrap;html=1;rounded=0;fillColor=#f8cecc;strokeColor=#b85450;" vertex="1" parent="yGlVAPs6SAe4qEw8EwWw-174">
          <mxGeometry x="-80" y="10" width="210" height="60" as="geometry" />
        </mxCell>
        <mxCell id="yGlVAPs6SAe4qEw8EwWw-258" value="" style="edgeStyle=orthogonalEdgeStyle;rounded=0;orthogonalLoop=1;jettySize=auto;html=1;" edge="1" parent="yGlVAPs6SAe4qEw8EwWw-174" source="yGlVAPs6SAe4qEw8EwWw-256" target="yGlVAPs6SAe4qEw8EwWw-28">
          <mxGeometry relative="1" as="geometry" />
        </mxCell>
        <mxCell id="yGlVAPs6SAe4qEw8EwWw-256" value="Clear layers and Viewport Images" style="rounded=0;whiteSpace=wrap;html=1;" vertex="1" parent="yGlVAPs6SAe4qEw8EwWw-174">
          <mxGeometry x="550" y="10" width="120" height="60" as="geometry" />
        </mxCell>
        <mxCell id="yGlVAPs6SAe4qEw8EwWw-199" value="" style="edgeStyle=orthogonalEdgeStyle;rounded=0;orthogonalLoop=1;jettySize=auto;html=1;" edge="1" parent="1" source="yGlVAPs6SAe4qEw8EwWw-16" target="yGlVAPs6SAe4qEw8EwWw-198">
          <mxGeometry relative="1" as="geometry" />
        </mxCell>
        <mxCell id="yGlVAPs6SAe4qEw8EwWw-16" value="Does user wants to do project related operations?" style="rhombus;whiteSpace=wrap;html=1;rounded=0;" vertex="1" parent="1">
          <mxGeometry x="700" y="160" width="390" height="80" as="geometry" />
        </mxCell>
        <mxCell id="yGlVAPs6SAe4qEw8EwWw-18" value="" style="endArrow=classic;html=1;rounded=0;exitX=0;exitY=0.5;exitDx=0;exitDy=0;entryX=1;entryY=0.5;entryDx=0;entryDy=0;" edge="1" parent="1" source="yGlVAPs6SAe4qEw8EwWw-16" target="yGlVAPs6SAe4qEw8EwWw-2">
          <mxGeometry width="50" height="50" relative="1" as="geometry">
            <mxPoint x="630" y="150" as="sourcePoint" />
            <mxPoint x="680" y="100" as="targetPoint" />
          </mxGeometry>
        </mxCell>
        <mxCell id="yGlVAPs6SAe4qEw8EwWw-19" value="Yes" style="edgeLabel;html=1;align=center;verticalAlign=middle;resizable=0;points=[];" vertex="1" connectable="0" parent="yGlVAPs6SAe4qEw8EwWw-18">
          <mxGeometry x="-0.6722" y="-2" relative="1" as="geometry">
            <mxPoint as="offset" />
          </mxGeometry>
        </mxCell>
        <mxCell id="yGlVAPs6SAe4qEw8EwWw-37" value="" style="curved=1;endArrow=classic;html=1;rounded=0;exitX=0.5;exitY=0;exitDx=0;exitDy=0;entryX=0;entryY=0.5;entryDx=0;entryDy=0;" edge="1" parent="1" source="yGlVAPs6SAe4qEw8EwWw-173" target="yGlVAPs6SAe4qEw8EwWw-1">
          <mxGeometry width="50" height="50" relative="1" as="geometry">
            <mxPoint x="-760" y="170" as="sourcePoint" />
            <mxPoint x="-600" as="targetPoint" />
            <Array as="points">
              <mxPoint x="-710" y="10" />
              <mxPoint x="-100" y="-70" />
            </Array>
          </mxGeometry>
        </mxCell>
        <mxCell id="yGlVAPs6SAe4qEw8EwWw-49" value="" style="curved=1;endArrow=classic;html=1;rounded=0;exitX=0.5;exitY=1;exitDx=0;exitDy=0;entryX=0.085;entryY=0.987;entryDx=0;entryDy=0;entryPerimeter=0;" edge="1" parent="1" source="yGlVAPs6SAe4qEw8EwWw-42" target="yGlVAPs6SAe4qEw8EwWw-1">
          <mxGeometry width="50" height="50" relative="1" as="geometry">
            <mxPoint x="370" y="1250" as="sourcePoint" />
            <mxPoint x="420" y="1200" as="targetPoint" />
            <Array as="points">
              <mxPoint x="420" y="1250" />
              <mxPoint x="620" y="930" />
            </Array>
          </mxGeometry>
        </mxCell>
        <mxCell id="yGlVAPs6SAe4qEw8EwWw-50" value="No" style="edgeLabel;html=1;align=center;verticalAlign=middle;resizable=0;points=[];" vertex="1" connectable="0" parent="yGlVAPs6SAe4qEw8EwWw-49">
          <mxGeometry x="-0.8904" y="-1" relative="1" as="geometry">
            <mxPoint as="offset" />
          </mxGeometry>
        </mxCell>
        <mxCell id="yGlVAPs6SAe4qEw8EwWw-201" value="Yes" style="edgeStyle=orthogonalEdgeStyle;rounded=0;orthogonalLoop=1;jettySize=auto;html=1;" edge="1" parent="1" source="yGlVAPs6SAe4qEw8EwWw-51" target="yGlVAPs6SAe4qEw8EwWw-200">
          <mxGeometry relative="1" as="geometry" />
        </mxCell>
        <mxCell id="yGlVAPs6SAe4qEw8EwWw-211" value="No" style="edgeStyle=orthogonalEdgeStyle;rounded=0;orthogonalLoop=1;jettySize=auto;html=1;" edge="1" parent="1" source="yGlVAPs6SAe4qEw8EwWw-51" target="yGlVAPs6SAe4qEw8EwWw-210">
          <mxGeometry x="-0.9167" relative="1" as="geometry">
            <mxPoint y="1" as="offset" />
          </mxGeometry>
        </mxCell>
        <mxCell id="yGlVAPs6SAe4qEw8EwWw-51" value="Does user wants to do Adjust Image Brightness?" style="rhombus;whiteSpace=wrap;html=1;rounded=0;" vertex="1" parent="1">
          <mxGeometry x="2290" y="430" width="310" height="80" as="geometry" />
        </mxCell>
        <mxCell id="yGlVAPs6SAe4qEw8EwWw-53" value="Brightness Panel Operations" style="swimlane;" vertex="1" parent="1">
          <mxGeometry x="2840" y="350" width="1890" height="810" as="geometry" />
        </mxCell>
        <mxCell id="yGlVAPs6SAe4qEw8EwWw-212" value="" style="group" vertex="1" connectable="0" parent="yGlVAPs6SAe4qEw8EwWw-53">
          <mxGeometry x="120" y="80" width="1220" height="560" as="geometry" />
        </mxCell>
        <mxCell id="yGlVAPs6SAe4qEw8EwWw-58" value="" style="edgeStyle=orthogonalEdgeStyle;rounded=0;orthogonalLoop=1;jettySize=auto;html=1;" edge="1" parent="yGlVAPs6SAe4qEw8EwWw-212" source="yGlVAPs6SAe4qEw8EwWw-60" target="yGlVAPs6SAe4qEw8EwWw-62">
          <mxGeometry relative="1" as="geometry" />
        </mxCell>
        <mxCell id="yGlVAPs6SAe4qEw8EwWw-59" value="No" style="edgeLabel;html=1;align=center;verticalAlign=middle;resizable=0;points=[];" vertex="1" connectable="0" parent="yGlVAPs6SAe4qEw8EwWw-58">
          <mxGeometry x="-0.4216" y="2" relative="1" as="geometry">
            <mxPoint as="offset" />
          </mxGeometry>
        </mxCell>
        <mxCell id="yGlVAPs6SAe4qEw8EwWw-81" value="" style="edgeStyle=orthogonalEdgeStyle;rounded=0;orthogonalLoop=1;jettySize=auto;html=1;" edge="1" parent="yGlVAPs6SAe4qEw8EwWw-212" source="yGlVAPs6SAe4qEw8EwWw-60" target="yGlVAPs6SAe4qEw8EwWw-80">
          <mxGeometry relative="1" as="geometry" />
        </mxCell>
        <mxCell id="yGlVAPs6SAe4qEw8EwWw-60" value="Does user wants to adjust brightness?" style="rhombus;whiteSpace=wrap;html=1;rounded=0;" vertex="1" parent="yGlVAPs6SAe4qEw8EwWw-212">
          <mxGeometry width="250" height="80" as="geometry" />
        </mxCell>
        <mxCell id="yGlVAPs6SAe4qEw8EwWw-61" value="No" style="edgeStyle=orthogonalEdgeStyle;rounded=0;orthogonalLoop=1;jettySize=auto;html=1;" edge="1" parent="yGlVAPs6SAe4qEw8EwWw-212" source="yGlVAPs6SAe4qEw8EwWw-62" target="yGlVAPs6SAe4qEw8EwWw-64">
          <mxGeometry relative="1" as="geometry" />
        </mxCell>
        <mxCell id="yGlVAPs6SAe4qEw8EwWw-62" value="Does user wants to adjust shadow?" style="rhombus;whiteSpace=wrap;html=1;rounded=0;" vertex="1" parent="yGlVAPs6SAe4qEw8EwWw-212">
          <mxGeometry y="160" width="250" height="80" as="geometry" />
        </mxCell>
        <mxCell id="yGlVAPs6SAe4qEw8EwWw-63" value="" style="edgeStyle=orthogonalEdgeStyle;rounded=0;orthogonalLoop=1;jettySize=auto;html=1;" edge="1" parent="yGlVAPs6SAe4qEw8EwWw-212" source="yGlVAPs6SAe4qEw8EwWw-64" target="yGlVAPs6SAe4qEw8EwWw-66">
          <mxGeometry relative="1" as="geometry" />
        </mxCell>
        <mxCell id="yGlVAPs6SAe4qEw8EwWw-76" value="" style="edgeStyle=orthogonalEdgeStyle;rounded=0;orthogonalLoop=1;jettySize=auto;html=1;" edge="1" parent="yGlVAPs6SAe4qEw8EwWw-212" source="yGlVAPs6SAe4qEw8EwWw-64" target="yGlVAPs6SAe4qEw8EwWw-66">
          <mxGeometry relative="1" as="geometry" />
        </mxCell>
        <mxCell id="yGlVAPs6SAe4qEw8EwWw-77" value="No" style="edgeLabel;html=1;align=center;verticalAlign=middle;resizable=0;points=[];" vertex="1" connectable="0" parent="yGlVAPs6SAe4qEw8EwWw-76">
          <mxGeometry x="-0.5875" y="2" relative="1" as="geometry">
            <mxPoint as="offset" />
          </mxGeometry>
        </mxCell>
        <mxCell id="yGlVAPs6SAe4qEw8EwWw-64" value="Does user wants to adjust highlight?" style="rhombus;whiteSpace=wrap;html=1;rounded=0;" vertex="1" parent="yGlVAPs6SAe4qEw8EwWw-212">
          <mxGeometry y="320" width="250" height="80" as="geometry" />
        </mxCell>
        <mxCell id="yGlVAPs6SAe4qEw8EwWw-66" value="Does user wants to reset the image?" style="rhombus;whiteSpace=wrap;html=1;rounded=0;" vertex="1" parent="yGlVAPs6SAe4qEw8EwWw-212">
          <mxGeometry y="480" width="250" height="80" as="geometry" />
        </mxCell>
        <mxCell id="yGlVAPs6SAe4qEw8EwWw-83" value="" style="edgeStyle=orthogonalEdgeStyle;rounded=0;orthogonalLoop=1;jettySize=auto;html=1;" edge="1" parent="yGlVAPs6SAe4qEw8EwWw-212" source="yGlVAPs6SAe4qEw8EwWw-80" target="yGlVAPs6SAe4qEw8EwWw-82">
          <mxGeometry relative="1" as="geometry" />
        </mxCell>
        <mxCell id="yGlVAPs6SAe4qEw8EwWw-80" value="Let user enter new brightness value -&amp;gt; V" style="shape=parallelogram;perimeter=parallelogramPerimeter;whiteSpace=wrap;html=1;fixedSize=1;rounded=0;" vertex="1" parent="yGlVAPs6SAe4qEw8EwWw-212">
          <mxGeometry x="350" y="10" width="255" height="60" as="geometry" />
        </mxCell>
        <mxCell id="yGlVAPs6SAe4qEw8EwWw-82" value="Update the brightness setting of this the current to V" style="whiteSpace=wrap;html=1;rounded=0;" vertex="1" parent="yGlVAPs6SAe4qEw8EwWw-212">
          <mxGeometry x="720" y="10" width="210" height="60" as="geometry" />
        </mxCell>
        <mxCell id="yGlVAPs6SAe4qEw8EwWw-89" value="" style="edgeStyle=orthogonalEdgeStyle;rounded=0;orthogonalLoop=1;jettySize=auto;html=1;exitX=1;exitY=0.5;exitDx=0;exitDy=0;" edge="1" parent="yGlVAPs6SAe4qEw8EwWw-212" target="yGlVAPs6SAe4qEw8EwWw-91" source="yGlVAPs6SAe4qEw8EwWw-62">
          <mxGeometry relative="1" as="geometry">
            <mxPoint x="270" y="200" as="sourcePoint" />
          </mxGeometry>
        </mxCell>
        <mxCell id="yGlVAPs6SAe4qEw8EwWw-90" value="" style="edgeStyle=orthogonalEdgeStyle;rounded=0;orthogonalLoop=1;jettySize=auto;html=1;" edge="1" parent="yGlVAPs6SAe4qEw8EwWw-212" source="yGlVAPs6SAe4qEw8EwWw-91" target="yGlVAPs6SAe4qEw8EwWw-92">
          <mxGeometry relative="1" as="geometry" />
        </mxCell>
        <mxCell id="yGlVAPs6SAe4qEw8EwWw-91" value="Let user enter new shadow&amp;nbsp;&lt;div&gt;strength value -&amp;gt; V&lt;/div&gt;" style="shape=parallelogram;perimeter=parallelogramPerimeter;whiteSpace=wrap;html=1;fixedSize=1;rounded=0;" vertex="1" parent="yGlVAPs6SAe4qEw8EwWw-212">
          <mxGeometry x="350" y="170" width="255" height="60" as="geometry" />
        </mxCell>
        <mxCell id="yGlVAPs6SAe4qEw8EwWw-92" value="Update the shadow strength setting&amp;nbsp;&lt;div&gt;of this the current to V&lt;/div&gt;" style="whiteSpace=wrap;html=1;rounded=0;" vertex="1" parent="yGlVAPs6SAe4qEw8EwWw-212">
          <mxGeometry x="710" y="170" width="210" height="60" as="geometry" />
        </mxCell>
        <mxCell id="yGlVAPs6SAe4qEw8EwWw-94" value="Logic of Update Viewport Render" style="swimlane;fillColor=#f8cecc;strokeColor=#b85450;" vertex="1" parent="1">
          <mxGeometry x="5740" y="440" width="1760" height="1180" as="geometry" />
        </mxCell>
        <mxCell id="yGlVAPs6SAe4qEw8EwWw-197" value="" style="group" vertex="1" connectable="0" parent="yGlVAPs6SAe4qEw8EwWw-94">
          <mxGeometry x="70" y="50" width="1605" height="1040" as="geometry" />
        </mxCell>
        <mxCell id="yGlVAPs6SAe4qEw8EwWw-100" value="" style="edgeStyle=orthogonalEdgeStyle;rounded=0;orthogonalLoop=1;jettySize=auto;html=1;" edge="1" parent="yGlVAPs6SAe4qEw8EwWw-197" source="yGlVAPs6SAe4qEw8EwWw-95" target="yGlVAPs6SAe4qEw8EwWw-99">
          <mxGeometry relative="1" as="geometry" />
        </mxCell>
        <mxCell id="yGlVAPs6SAe4qEw8EwWw-95" value="Start" style="ellipse;whiteSpace=wrap;html=1;" vertex="1" parent="yGlVAPs6SAe4qEw8EwWw-197">
          <mxGeometry y="30" width="120" height="80" as="geometry" />
        </mxCell>
        <mxCell id="yGlVAPs6SAe4qEw8EwWw-96" value="End" style="ellipse;whiteSpace=wrap;html=1;" vertex="1" parent="yGlVAPs6SAe4qEw8EwWw-197">
          <mxGeometry y="430" width="120" height="80" as="geometry" />
        </mxCell>
        <mxCell id="yGlVAPs6SAe4qEw8EwWw-105" value="" style="edgeStyle=orthogonalEdgeStyle;rounded=0;orthogonalLoop=1;jettySize=auto;html=1;" edge="1" parent="yGlVAPs6SAe4qEw8EwWw-197" source="yGlVAPs6SAe4qEw8EwWw-99" target="yGlVAPs6SAe4qEw8EwWw-104">
          <mxGeometry relative="1" as="geometry" />
        </mxCell>
        <mxCell id="yGlVAPs6SAe4qEw8EwWw-171" value="" style="edgeStyle=orthogonalEdgeStyle;rounded=0;orthogonalLoop=1;jettySize=auto;html=1;" edge="1" parent="yGlVAPs6SAe4qEw8EwWw-197" source="yGlVAPs6SAe4qEw8EwWw-99" target="yGlVAPs6SAe4qEw8EwWw-170">
          <mxGeometry relative="1" as="geometry" />
        </mxCell>
        <mxCell id="yGlVAPs6SAe4qEw8EwWw-99" value="is there any un-rendered layer in this frame?" style="rhombus;whiteSpace=wrap;html=1;" vertex="1" parent="yGlVAPs6SAe4qEw8EwWw-197">
          <mxGeometry x="220" width="330" height="140" as="geometry" />
        </mxCell>
        <mxCell id="yGlVAPs6SAe4qEw8EwWw-108" value="No" style="edgeStyle=orthogonalEdgeStyle;rounded=0;orthogonalLoop=1;jettySize=auto;html=1;" edge="1" parent="yGlVAPs6SAe4qEw8EwWw-197" source="yGlVAPs6SAe4qEw8EwWw-101" target="yGlVAPs6SAe4qEw8EwWw-107">
          <mxGeometry relative="1" as="geometry" />
        </mxCell>
        <mxCell id="yGlVAPs6SAe4qEw8EwWw-101" value="Prepare a new image: IMG from original image" style="whiteSpace=wrap;html=1;" vertex="1" parent="yGlVAPs6SAe4qEw8EwWw-197">
          <mxGeometry x="895" y="40" width="160" height="60" as="geometry" />
        </mxCell>
        <mxCell id="yGlVAPs6SAe4qEw8EwWw-104" value="Draw all rendered images to the canvas" style="whiteSpace=wrap;html=1;" vertex="1" parent="yGlVAPs6SAe4qEw8EwWw-197">
          <mxGeometry x="230" y="260" width="310" height="60" as="geometry" />
        </mxCell>
        <mxCell id="yGlVAPs6SAe4qEw8EwWw-106" value="" style="curved=1;endArrow=classic;html=1;rounded=0;exitX=0.5;exitY=1;exitDx=0;exitDy=0;entryX=1.007;entryY=0.425;entryDx=0;entryDy=0;entryPerimeter=0;" edge="1" parent="yGlVAPs6SAe4qEw8EwWw-197" source="yGlVAPs6SAe4qEw8EwWw-104" target="yGlVAPs6SAe4qEw8EwWw-96">
          <mxGeometry width="50" height="50" relative="1" as="geometry">
            <mxPoint x="320" y="450" as="sourcePoint" />
            <mxPoint x="370" y="400" as="targetPoint" />
            <Array as="points">
              <mxPoint x="350" y="400" />
              <mxPoint x="250" y="450" />
            </Array>
          </mxGeometry>
        </mxCell>
        <mxCell id="yGlVAPs6SAe4qEw8EwWw-130" value="Yes" style="edgeStyle=orthogonalEdgeStyle;rounded=0;orthogonalLoop=1;jettySize=auto;html=1;" edge="1" parent="yGlVAPs6SAe4qEw8EwWw-197" source="yGlVAPs6SAe4qEw8EwWw-107" target="yGlVAPs6SAe4qEw8EwWw-122">
          <mxGeometry relative="1" as="geometry" />
        </mxCell>
        <mxCell id="yGlVAPs6SAe4qEw8EwWw-139" value="No" style="edgeStyle=orthogonalEdgeStyle;rounded=0;orthogonalLoop=1;jettySize=auto;html=1;" edge="1" parent="yGlVAPs6SAe4qEw8EwWw-197" source="yGlVAPs6SAe4qEw8EwWw-107" target="yGlVAPs6SAe4qEw8EwWw-138">
          <mxGeometry relative="1" as="geometry">
            <Array as="points">
              <mxPoint x="1085" y="180" />
              <mxPoint x="1085" y="180" />
            </Array>
          </mxGeometry>
        </mxCell>
        <mxCell id="yGlVAPs6SAe4qEw8EwWw-107" value="Is channel == 15?" style="rhombus;whiteSpace=wrap;html=1;" vertex="1" parent="yGlVAPs6SAe4qEw8EwWw-197">
          <mxGeometry x="890" y="140" width="170" height="80" as="geometry" />
        </mxCell>
        <mxCell id="yGlVAPs6SAe4qEw8EwWw-131" value="Yes" style="edgeStyle=orthogonalEdgeStyle;rounded=0;orthogonalLoop=1;jettySize=auto;html=1;" edge="1" parent="yGlVAPs6SAe4qEw8EwWw-197" source="yGlVAPs6SAe4qEw8EwWw-122">
          <mxGeometry relative="1" as="geometry">
            <mxPoint x="975" y="360" as="targetPoint" />
          </mxGeometry>
        </mxCell>
        <mxCell id="yGlVAPs6SAe4qEw8EwWw-122" value="Is brightness value == 0?" style="rhombus;whiteSpace=wrap;html=1;" vertex="1" parent="yGlVAPs6SAe4qEw8EwWw-197">
          <mxGeometry x="890" y="250" width="170" height="80" as="geometry" />
        </mxCell>
        <mxCell id="yGlVAPs6SAe4qEw8EwWw-133" value="No" style="edgeStyle=orthogonalEdgeStyle;rounded=0;orthogonalLoop=1;jettySize=auto;html=1;" edge="1" parent="yGlVAPs6SAe4qEw8EwWw-197" source="yGlVAPs6SAe4qEw8EwWw-125" target="yGlVAPs6SAe4qEw8EwWw-126">
          <mxGeometry relative="1" as="geometry" />
        </mxCell>
        <mxCell id="yGlVAPs6SAe4qEw8EwWw-125" value="Is shadow value == 0?" style="rhombus;whiteSpace=wrap;html=1;" vertex="1" parent="yGlVAPs6SAe4qEw8EwWw-197">
          <mxGeometry x="890" y="360" width="170" height="80" as="geometry" />
        </mxCell>
        <mxCell id="yGlVAPs6SAe4qEw8EwWw-134" value="No" style="edgeStyle=orthogonalEdgeStyle;rounded=0;orthogonalLoop=1;jettySize=auto;html=1;" edge="1" parent="yGlVAPs6SAe4qEw8EwWw-197" source="yGlVAPs6SAe4qEw8EwWw-126" target="yGlVAPs6SAe4qEw8EwWw-127">
          <mxGeometry relative="1" as="geometry" />
        </mxCell>
        <mxCell id="yGlVAPs6SAe4qEw8EwWw-126" value="Is highlight value == 0?" style="rhombus;whiteSpace=wrap;html=1;" vertex="1" parent="yGlVAPs6SAe4qEw8EwWw-197">
          <mxGeometry x="890" y="470" width="170" height="80" as="geometry" />
        </mxCell>
        <mxCell id="yGlVAPs6SAe4qEw8EwWw-135" value="Yes" style="edgeStyle=orthogonalEdgeStyle;rounded=0;orthogonalLoop=1;jettySize=auto;html=1;" edge="1" parent="yGlVAPs6SAe4qEw8EwWw-197" source="yGlVAPs6SAe4qEw8EwWw-127" target="yGlVAPs6SAe4qEw8EwWw-128">
          <mxGeometry relative="1" as="geometry" />
        </mxCell>
        <mxCell id="yGlVAPs6SAe4qEw8EwWw-127" value="Is nostalgic effect == False?" style="rhombus;whiteSpace=wrap;html=1;" vertex="1" parent="yGlVAPs6SAe4qEw8EwWw-197">
          <mxGeometry x="890" y="580" width="170" height="80" as="geometry" />
        </mxCell>
        <mxCell id="yGlVAPs6SAe4qEw8EwWw-177" value="" style="edgeStyle=orthogonalEdgeStyle;rounded=0;orthogonalLoop=1;jettySize=auto;html=1;" edge="1" parent="yGlVAPs6SAe4qEw8EwWw-197" source="yGlVAPs6SAe4qEw8EwWw-128" target="yGlVAPs6SAe4qEw8EwWw-176">
          <mxGeometry relative="1" as="geometry" />
        </mxCell>
        <mxCell id="yGlVAPs6SAe4qEw8EwWw-179" value="Yes" style="edgeLabel;html=1;align=center;verticalAlign=middle;resizable=0;points=[];" vertex="1" connectable="0" parent="yGlVAPs6SAe4qEw8EwWw-177">
          <mxGeometry x="0.4667" relative="1" as="geometry">
            <mxPoint as="offset" />
          </mxGeometry>
        </mxCell>
        <mxCell id="yGlVAPs6SAe4qEw8EwWw-128" value="Is black and white&lt;div&gt;&amp;nbsp;effect == False?&lt;/div&gt;" style="rhombus;whiteSpace=wrap;html=1;" vertex="1" parent="yGlVAPs6SAe4qEw8EwWw-197">
          <mxGeometry x="890" y="690" width="170" height="80" as="geometry" />
        </mxCell>
        <mxCell id="yGlVAPs6SAe4qEw8EwWw-129" value="Is blurred effect == False?" style="rhombus;whiteSpace=wrap;html=1;" vertex="1" parent="yGlVAPs6SAe4qEw8EwWw-197">
          <mxGeometry x="890" y="910" width="170" height="80" as="geometry" />
        </mxCell>
        <mxCell id="yGlVAPs6SAe4qEw8EwWw-137" value="channel: R G B A&lt;div&gt;&amp;nbsp; &amp;nbsp; &amp;nbsp; &amp;nbsp; &amp;nbsp; &amp;nbsp; &amp;nbsp;: 1 &amp;nbsp;1 &amp;nbsp;1 1&lt;/div&gt;&lt;div&gt;= 15&lt;/div&gt;" style="text;html=1;align=center;verticalAlign=middle;resizable=0;points=[];autosize=1;strokeColor=none;fillColor=none;fontColor=#A8A8A8;" vertex="1" parent="yGlVAPs6SAe4qEw8EwWw-197">
          <mxGeometry x="790" y="140" width="120" height="60" as="geometry" />
        </mxCell>
        <mxCell id="yGlVAPs6SAe4qEw8EwWw-141" value="" style="edgeStyle=orthogonalEdgeStyle;rounded=0;orthogonalLoop=1;jettySize=auto;html=1;" edge="1" parent="yGlVAPs6SAe4qEw8EwWw-197" source="yGlVAPs6SAe4qEw8EwWw-138" target="yGlVAPs6SAe4qEw8EwWw-140">
          <mxGeometry relative="1" as="geometry" />
        </mxCell>
        <mxCell id="yGlVAPs6SAe4qEw8EwWw-138" value="call process.extract_channel(channel)&lt;div&gt;for IMG&lt;/div&gt;" style="whiteSpace=wrap;html=1;" vertex="1" parent="yGlVAPs6SAe4qEw8EwWw-197">
          <mxGeometry x="1165" y="150" width="250" height="60" as="geometry" />
        </mxCell>
        <mxCell id="yGlVAPs6SAe4qEw8EwWw-140" value="Store result into IMG" style="whiteSpace=wrap;html=1;" vertex="1" parent="yGlVAPs6SAe4qEw8EwWw-197">
          <mxGeometry x="1485" y="150" width="120" height="60" as="geometry" />
        </mxCell>
        <mxCell id="yGlVAPs6SAe4qEw8EwWw-142" value="" style="endArrow=classic;html=1;rounded=0;exitX=0.5;exitY=1;exitDx=0;exitDy=0;" edge="1" parent="yGlVAPs6SAe4qEw8EwWw-197" source="yGlVAPs6SAe4qEw8EwWw-140" target="yGlVAPs6SAe4qEw8EwWw-122">
          <mxGeometry width="50" height="50" relative="1" as="geometry">
            <mxPoint x="1265" y="260" as="sourcePoint" />
            <mxPoint x="1315" y="210" as="targetPoint" />
            <Array as="points">
              <mxPoint x="1535" y="220" />
              <mxPoint x="1045" y="220" />
            </Array>
          </mxGeometry>
        </mxCell>
        <mxCell id="yGlVAPs6SAe4qEw8EwWw-144" value="No" style="edgeStyle=orthogonalEdgeStyle;rounded=0;orthogonalLoop=1;jettySize=auto;html=1;exitX=1;exitY=0.5;exitDx=0;exitDy=0;" edge="1" parent="yGlVAPs6SAe4qEw8EwWw-197" target="yGlVAPs6SAe4qEw8EwWw-146" source="yGlVAPs6SAe4qEw8EwWw-122">
          <mxGeometry relative="1" as="geometry">
            <mxPoint x="1060" y="290" as="sourcePoint" />
            <Array as="points" />
          </mxGeometry>
        </mxCell>
        <mxCell id="yGlVAPs6SAe4qEw8EwWw-145" value="" style="edgeStyle=orthogonalEdgeStyle;rounded=0;orthogonalLoop=1;jettySize=auto;html=1;" edge="1" parent="yGlVAPs6SAe4qEw8EwWw-197" source="yGlVAPs6SAe4qEw8EwWw-146" target="yGlVAPs6SAe4qEw8EwWw-147">
          <mxGeometry relative="1" as="geometry" />
        </mxCell>
        <mxCell id="yGlVAPs6SAe4qEw8EwWw-146" value="call process.adjust_brightness(channel)&lt;div&gt;for IMG&lt;/div&gt;" style="whiteSpace=wrap;html=1;" vertex="1" parent="yGlVAPs6SAe4qEw8EwWw-197">
          <mxGeometry x="1165" y="260" width="250" height="60" as="geometry" />
        </mxCell>
        <mxCell id="yGlVAPs6SAe4qEw8EwWw-147" value="Store result into IMG" style="whiteSpace=wrap;html=1;" vertex="1" parent="yGlVAPs6SAe4qEw8EwWw-197">
          <mxGeometry x="1485" y="260" width="120" height="60" as="geometry" />
        </mxCell>
        <mxCell id="yGlVAPs6SAe4qEw8EwWw-148" value="" style="endArrow=classic;html=1;rounded=0;exitX=0.5;exitY=1;exitDx=0;exitDy=0;" edge="1" parent="yGlVAPs6SAe4qEw8EwWw-197" source="yGlVAPs6SAe4qEw8EwWw-147">
          <mxGeometry width="50" height="50" relative="1" as="geometry">
            <mxPoint x="1265" y="370" as="sourcePoint" />
            <mxPoint x="1002" y="373" as="targetPoint" />
            <Array as="points">
              <mxPoint x="1475" y="330" />
              <mxPoint x="1045" y="330" />
            </Array>
          </mxGeometry>
        </mxCell>
        <mxCell id="yGlVAPs6SAe4qEw8EwWw-154" value="No" style="edgeStyle=orthogonalEdgeStyle;rounded=0;orthogonalLoop=1;jettySize=auto;html=1;exitX=1;exitY=0.5;exitDx=0;exitDy=0;" edge="1" parent="yGlVAPs6SAe4qEw8EwWw-197" target="yGlVAPs6SAe4qEw8EwWw-156">
          <mxGeometry relative="1" as="geometry">
            <mxPoint x="1060" y="400" as="sourcePoint" />
            <Array as="points" />
          </mxGeometry>
        </mxCell>
        <mxCell id="yGlVAPs6SAe4qEw8EwWw-155" value="" style="edgeStyle=orthogonalEdgeStyle;rounded=0;orthogonalLoop=1;jettySize=auto;html=1;" edge="1" parent="yGlVAPs6SAe4qEw8EwWw-197" source="yGlVAPs6SAe4qEw8EwWw-156" target="yGlVAPs6SAe4qEw8EwWw-157">
          <mxGeometry relative="1" as="geometry" />
        </mxCell>
        <mxCell id="yGlVAPs6SAe4qEw8EwWw-156" value="call process.adjust_shadow(shadow)&lt;div&gt;for IMG&lt;/div&gt;" style="whiteSpace=wrap;html=1;" vertex="1" parent="yGlVAPs6SAe4qEw8EwWw-197">
          <mxGeometry x="1165" y="370" width="250" height="60" as="geometry" />
        </mxCell>
        <mxCell id="yGlVAPs6SAe4qEw8EwWw-157" value="Store result into IMG" style="whiteSpace=wrap;html=1;" vertex="1" parent="yGlVAPs6SAe4qEw8EwWw-197">
          <mxGeometry x="1485" y="370" width="120" height="60" as="geometry" />
        </mxCell>
        <mxCell id="yGlVAPs6SAe4qEw8EwWw-158" value="" style="endArrow=classic;html=1;rounded=0;exitX=0.5;exitY=1;exitDx=0;exitDy=0;" edge="1" parent="yGlVAPs6SAe4qEw8EwWw-197" source="yGlVAPs6SAe4qEw8EwWw-157">
          <mxGeometry width="50" height="50" relative="1" as="geometry">
            <mxPoint x="1265" y="480" as="sourcePoint" />
            <mxPoint x="1002" y="483" as="targetPoint" />
            <Array as="points">
              <mxPoint x="1475" y="440" />
              <mxPoint x="1045" y="440" />
            </Array>
          </mxGeometry>
        </mxCell>
        <mxCell id="yGlVAPs6SAe4qEw8EwWw-159" value="No" style="edgeStyle=orthogonalEdgeStyle;rounded=0;orthogonalLoop=1;jettySize=auto;html=1;exitX=1;exitY=0.5;exitDx=0;exitDy=0;" edge="1" parent="yGlVAPs6SAe4qEw8EwWw-197" target="yGlVAPs6SAe4qEw8EwWw-161">
          <mxGeometry relative="1" as="geometry">
            <mxPoint x="1060" y="510" as="sourcePoint" />
            <Array as="points" />
          </mxGeometry>
        </mxCell>
        <mxCell id="yGlVAPs6SAe4qEw8EwWw-160" value="" style="edgeStyle=orthogonalEdgeStyle;rounded=0;orthogonalLoop=1;jettySize=auto;html=1;" edge="1" parent="yGlVAPs6SAe4qEw8EwWw-197" source="yGlVAPs6SAe4qEw8EwWw-161" target="yGlVAPs6SAe4qEw8EwWw-162">
          <mxGeometry relative="1" as="geometry" />
        </mxCell>
        <mxCell id="yGlVAPs6SAe4qEw8EwWw-161" value="call process.adjust_highlight(highlight)&lt;div&gt;for IMG&lt;/div&gt;" style="whiteSpace=wrap;html=1;" vertex="1" parent="yGlVAPs6SAe4qEw8EwWw-197">
          <mxGeometry x="1165" y="480" width="250" height="60" as="geometry" />
        </mxCell>
        <mxCell id="yGlVAPs6SAe4qEw8EwWw-162" value="Store result into IMG" style="whiteSpace=wrap;html=1;" vertex="1" parent="yGlVAPs6SAe4qEw8EwWw-197">
          <mxGeometry x="1485" y="480" width="120" height="60" as="geometry" />
        </mxCell>
        <mxCell id="yGlVAPs6SAe4qEw8EwWw-163" value="" style="endArrow=classic;html=1;rounded=0;exitX=0.5;exitY=1;exitDx=0;exitDy=0;" edge="1" parent="yGlVAPs6SAe4qEw8EwWw-197" source="yGlVAPs6SAe4qEw8EwWw-162">
          <mxGeometry width="50" height="50" relative="1" as="geometry">
            <mxPoint x="1265" y="590" as="sourcePoint" />
            <mxPoint x="1002" y="593" as="targetPoint" />
            <Array as="points">
              <mxPoint x="1475" y="550" />
              <mxPoint x="1045" y="550" />
            </Array>
          </mxGeometry>
        </mxCell>
        <mxCell id="yGlVAPs6SAe4qEw8EwWw-164" value="No" style="edgeStyle=orthogonalEdgeStyle;rounded=0;orthogonalLoop=1;jettySize=auto;html=1;exitX=1;exitY=0.5;exitDx=0;exitDy=0;" edge="1" parent="yGlVAPs6SAe4qEw8EwWw-197" target="yGlVAPs6SAe4qEw8EwWw-166">
          <mxGeometry relative="1" as="geometry">
            <mxPoint x="1060" y="620" as="sourcePoint" />
            <Array as="points" />
          </mxGeometry>
        </mxCell>
        <mxCell id="yGlVAPs6SAe4qEw8EwWw-165" value="" style="edgeStyle=orthogonalEdgeStyle;rounded=0;orthogonalLoop=1;jettySize=auto;html=1;" edge="1" parent="yGlVAPs6SAe4qEw8EwWw-197" source="yGlVAPs6SAe4qEw8EwWw-166" target="yGlVAPs6SAe4qEw8EwWw-167">
          <mxGeometry relative="1" as="geometry" />
        </mxCell>
        <mxCell id="yGlVAPs6SAe4qEw8EwWw-166" value="&lt;div&gt;Use ImageEnhance to add nostalgic effect&amp;nbsp;&lt;/div&gt;&lt;div&gt;for IMG&lt;/div&gt;" style="whiteSpace=wrap;html=1;" vertex="1" parent="yGlVAPs6SAe4qEw8EwWw-197">
          <mxGeometry x="1165" y="590" width="250" height="60" as="geometry" />
        </mxCell>
        <mxCell id="yGlVAPs6SAe4qEw8EwWw-167" value="Store result into IMG" style="whiteSpace=wrap;html=1;" vertex="1" parent="yGlVAPs6SAe4qEw8EwWw-197">
          <mxGeometry x="1485" y="590" width="120" height="60" as="geometry" />
        </mxCell>
        <mxCell id="yGlVAPs6SAe4qEw8EwWw-168" value="" style="endArrow=classic;html=1;rounded=0;exitX=0.5;exitY=1;exitDx=0;exitDy=0;" edge="1" parent="yGlVAPs6SAe4qEw8EwWw-197" source="yGlVAPs6SAe4qEw8EwWw-167">
          <mxGeometry width="50" height="50" relative="1" as="geometry">
            <mxPoint x="1265" y="700" as="sourcePoint" />
            <mxPoint x="1002" y="703" as="targetPoint" />
            <Array as="points">
              <mxPoint x="1475" y="660" />
              <mxPoint x="1045" y="660" />
            </Array>
          </mxGeometry>
        </mxCell>
        <mxCell id="yGlVAPs6SAe4qEw8EwWw-169" value="" style="curved=1;endArrow=classic;html=1;rounded=0;exitX=0.5;exitY=1;exitDx=0;exitDy=0;entryX=0.847;entryY=0.66;entryDx=0;entryDy=0;entryPerimeter=0;" edge="1" parent="yGlVAPs6SAe4qEw8EwWw-197" source="yGlVAPs6SAe4qEw8EwWw-129" target="yGlVAPs6SAe4qEw8EwWw-99">
          <mxGeometry width="50" height="50" relative="1" as="geometry">
            <mxPoint x="530" y="930" as="sourcePoint" />
            <mxPoint x="580" y="880" as="targetPoint" />
            <Array as="points">
              <mxPoint x="610" y="1020" />
              <mxPoint x="590" y="250" />
            </Array>
          </mxGeometry>
        </mxCell>
        <mxCell id="yGlVAPs6SAe4qEw8EwWw-172" value="" style="edgeStyle=orthogonalEdgeStyle;rounded=0;orthogonalLoop=1;jettySize=auto;html=1;" edge="1" parent="yGlVAPs6SAe4qEw8EwWw-197" source="yGlVAPs6SAe4qEw8EwWw-170" target="yGlVAPs6SAe4qEw8EwWw-101">
          <mxGeometry relative="1" as="geometry" />
        </mxCell>
        <mxCell id="yGlVAPs6SAe4qEw8EwWw-170" value="Select an un-rendered layer" style="rounded=0;whiteSpace=wrap;html=1;" vertex="1" parent="yGlVAPs6SAe4qEw8EwWw-197">
          <mxGeometry x="670" y="40" width="120" height="60" as="geometry" />
        </mxCell>
        <mxCell id="yGlVAPs6SAe4qEw8EwWw-178" value="Yes" style="edgeStyle=orthogonalEdgeStyle;rounded=0;orthogonalLoop=1;jettySize=auto;html=1;" edge="1" parent="yGlVAPs6SAe4qEw8EwWw-197" source="yGlVAPs6SAe4qEw8EwWw-176" target="yGlVAPs6SAe4qEw8EwWw-129">
          <mxGeometry relative="1" as="geometry" />
        </mxCell>
        <mxCell id="yGlVAPs6SAe4qEw8EwWw-176" value="Is mosaic&amp;nbsp;&lt;div&gt;effect == False?&lt;/div&gt;" style="rhombus;whiteSpace=wrap;html=1;" vertex="1" parent="yGlVAPs6SAe4qEw8EwWw-197">
          <mxGeometry x="890" y="800" width="170" height="80" as="geometry" />
        </mxCell>
        <mxCell id="yGlVAPs6SAe4qEw8EwWw-182" value="No" style="edgeStyle=orthogonalEdgeStyle;rounded=0;orthogonalLoop=1;jettySize=auto;html=1;exitX=1;exitY=0.5;exitDx=0;exitDy=0;" edge="1" parent="yGlVAPs6SAe4qEw8EwWw-197" target="yGlVAPs6SAe4qEw8EwWw-184">
          <mxGeometry relative="1" as="geometry">
            <mxPoint x="1060" y="730" as="sourcePoint" />
            <Array as="points" />
          </mxGeometry>
        </mxCell>
        <mxCell id="yGlVAPs6SAe4qEw8EwWw-183" value="" style="edgeStyle=orthogonalEdgeStyle;rounded=0;orthogonalLoop=1;jettySize=auto;html=1;" edge="1" parent="yGlVAPs6SAe4qEw8EwWw-197" source="yGlVAPs6SAe4qEw8EwWw-184" target="yGlVAPs6SAe4qEw8EwWw-185">
          <mxGeometry relative="1" as="geometry" />
        </mxCell>
        <mxCell id="yGlVAPs6SAe4qEw8EwWw-184" value="&lt;div&gt;Use ImageEnhance to add grayscale effect&amp;nbsp;&lt;/div&gt;&lt;div&gt;for IMG&lt;/div&gt;" style="whiteSpace=wrap;html=1;" vertex="1" parent="yGlVAPs6SAe4qEw8EwWw-197">
          <mxGeometry x="1165" y="700" width="250" height="60" as="geometry" />
        </mxCell>
        <mxCell id="yGlVAPs6SAe4qEw8EwWw-185" value="Store result into IMG" style="whiteSpace=wrap;html=1;" vertex="1" parent="yGlVAPs6SAe4qEw8EwWw-197">
          <mxGeometry x="1485" y="700" width="120" height="60" as="geometry" />
        </mxCell>
        <mxCell id="yGlVAPs6SAe4qEw8EwWw-186" value="" style="endArrow=classic;html=1;rounded=0;exitX=0.5;exitY=1;exitDx=0;exitDy=0;" edge="1" parent="yGlVAPs6SAe4qEw8EwWw-197" source="yGlVAPs6SAe4qEw8EwWw-185">
          <mxGeometry width="50" height="50" relative="1" as="geometry">
            <mxPoint x="1265" y="810" as="sourcePoint" />
            <mxPoint x="1002" y="813" as="targetPoint" />
            <Array as="points">
              <mxPoint x="1475" y="770" />
              <mxPoint x="1045" y="770" />
            </Array>
          </mxGeometry>
        </mxCell>
        <mxCell id="yGlVAPs6SAe4qEw8EwWw-187" value="No" style="edgeStyle=orthogonalEdgeStyle;rounded=0;orthogonalLoop=1;jettySize=auto;html=1;exitX=1;exitY=0.5;exitDx=0;exitDy=0;" edge="1" parent="yGlVAPs6SAe4qEw8EwWw-197" target="yGlVAPs6SAe4qEw8EwWw-189">
          <mxGeometry relative="1" as="geometry">
            <mxPoint x="1060" y="840" as="sourcePoint" />
            <Array as="points" />
          </mxGeometry>
        </mxCell>
        <mxCell id="yGlVAPs6SAe4qEw8EwWw-188" value="" style="edgeStyle=orthogonalEdgeStyle;rounded=0;orthogonalLoop=1;jettySize=auto;html=1;" edge="1" parent="yGlVAPs6SAe4qEw8EwWw-197" source="yGlVAPs6SAe4qEw8EwWw-189" target="yGlVAPs6SAe4qEw8EwWw-190">
          <mxGeometry relative="1" as="geometry" />
        </mxCell>
        <mxCell id="yGlVAPs6SAe4qEw8EwWw-189" value="&lt;div&gt;Use ImageEnhance to add mosaic effect&amp;nbsp;&lt;/div&gt;&lt;div&gt;for IMG&lt;/div&gt;" style="whiteSpace=wrap;html=1;" vertex="1" parent="yGlVAPs6SAe4qEw8EwWw-197">
          <mxGeometry x="1165" y="810" width="250" height="60" as="geometry" />
        </mxCell>
        <mxCell id="yGlVAPs6SAe4qEw8EwWw-190" value="Store result into IMG" style="whiteSpace=wrap;html=1;" vertex="1" parent="yGlVAPs6SAe4qEw8EwWw-197">
          <mxGeometry x="1485" y="810" width="120" height="60" as="geometry" />
        </mxCell>
        <mxCell id="yGlVAPs6SAe4qEw8EwWw-191" value="" style="endArrow=classic;html=1;rounded=0;exitX=0.5;exitY=1;exitDx=0;exitDy=0;" edge="1" parent="yGlVAPs6SAe4qEw8EwWw-197" source="yGlVAPs6SAe4qEw8EwWw-190">
          <mxGeometry width="50" height="50" relative="1" as="geometry">
            <mxPoint x="1265" y="920" as="sourcePoint" />
            <mxPoint x="1002" y="923" as="targetPoint" />
            <Array as="points">
              <mxPoint x="1475" y="880" />
              <mxPoint x="1045" y="880" />
            </Array>
          </mxGeometry>
        </mxCell>
        <mxCell id="yGlVAPs6SAe4qEw8EwWw-192" value="No" style="edgeStyle=orthogonalEdgeStyle;rounded=0;orthogonalLoop=1;jettySize=auto;html=1;exitX=1;exitY=0.5;exitDx=0;exitDy=0;" edge="1" parent="yGlVAPs6SAe4qEw8EwWw-197" target="yGlVAPs6SAe4qEw8EwWw-194">
          <mxGeometry relative="1" as="geometry">
            <mxPoint x="1060" y="950" as="sourcePoint" />
            <Array as="points" />
          </mxGeometry>
        </mxCell>
        <mxCell id="yGlVAPs6SAe4qEw8EwWw-193" value="" style="edgeStyle=orthogonalEdgeStyle;rounded=0;orthogonalLoop=1;jettySize=auto;html=1;" edge="1" parent="yGlVAPs6SAe4qEw8EwWw-197" source="yGlVAPs6SAe4qEw8EwWw-194" target="yGlVAPs6SAe4qEw8EwWw-195">
          <mxGeometry relative="1" as="geometry" />
        </mxCell>
        <mxCell id="yGlVAPs6SAe4qEw8EwWw-194" value="&lt;div&gt;Use ImageEnhance to add blur effect&amp;nbsp;&lt;/div&gt;&lt;div&gt;for IMG&lt;/div&gt;" style="whiteSpace=wrap;html=1;" vertex="1" parent="yGlVAPs6SAe4qEw8EwWw-197">
          <mxGeometry x="1165" y="920" width="250" height="60" as="geometry" />
        </mxCell>
        <mxCell id="yGlVAPs6SAe4qEw8EwWw-195" value="Store result into IMG" style="whiteSpace=wrap;html=1;" vertex="1" parent="yGlVAPs6SAe4qEw8EwWw-197">
          <mxGeometry x="1485" y="920" width="120" height="60" as="geometry" />
        </mxCell>
        <mxCell id="yGlVAPs6SAe4qEw8EwWw-196" value="" style="endArrow=classic;html=1;rounded=0;exitX=0.5;exitY=1;exitDx=0;exitDy=0;" edge="1" parent="yGlVAPs6SAe4qEw8EwWw-197" source="yGlVAPs6SAe4qEw8EwWw-195">
          <mxGeometry width="50" height="50" relative="1" as="geometry">
            <mxPoint x="1265" y="1030" as="sourcePoint" />
            <mxPoint x="950" y="990" as="targetPoint" />
            <Array as="points">
              <mxPoint x="1545" y="1040" />
              <mxPoint x="950" y="1040" />
            </Array>
          </mxGeometry>
        </mxCell>
        <mxCell id="yGlVAPs6SAe4qEw8EwWw-97" value="" style="endArrow=none;dashed=1;html=1;dashPattern=1 3;strokeWidth=2;rounded=0;exitX=1;exitY=0.75;exitDx=0;exitDy=0;entryX=0;entryY=0.034;entryDx=0;entryDy=0;entryPerimeter=0;" edge="1" parent="1" source="yGlVAPs6SAe4qEw8EwWw-86" target="yGlVAPs6SAe4qEw8EwWw-94">
          <mxGeometry width="50" height="50" relative="1" as="geometry">
            <mxPoint x="4600" y="270" as="sourcePoint" />
            <mxPoint x="5000" y="485" as="targetPoint" />
          </mxGeometry>
        </mxCell>
        <mxCell id="yGlVAPs6SAe4qEw8EwWw-98" value="details of update viewport render &amp;gt;&amp;gt;&amp;gt;" style="edgeLabel;html=1;align=center;verticalAlign=middle;resizable=0;points=[];" vertex="1" connectable="0" parent="yGlVAPs6SAe4qEw8EwWw-97">
          <mxGeometry x="-0.7794" y="1" relative="1" as="geometry">
            <mxPoint x="130" as="offset" />
          </mxGeometry>
        </mxCell>
        <mxCell id="yGlVAPs6SAe4qEw8EwWw-206" value="Yes" style="edgeStyle=orthogonalEdgeStyle;rounded=0;orthogonalLoop=1;jettySize=auto;html=1;" edge="1" parent="1" source="yGlVAPs6SAe4qEw8EwWw-198" target="yGlVAPs6SAe4qEw8EwWw-51">
          <mxGeometry relative="1" as="geometry" />
        </mxCell>
        <mxCell id="yGlVAPs6SAe4qEw8EwWw-208" value="No" style="edgeStyle=orthogonalEdgeStyle;rounded=0;orthogonalLoop=1;jettySize=auto;html=1;entryX=0.5;entryY=0;entryDx=0;entryDy=0;" edge="1" parent="1" source="yGlVAPs6SAe4qEw8EwWw-198" target="yGlVAPs6SAe4qEw8EwWw-240">
          <mxGeometry x="-0.8378" relative="1" as="geometry">
            <mxPoint x="895" y="1180" as="targetPoint" />
            <Array as="points">
              <mxPoint x="895" y="1250" />
            </Array>
            <mxPoint as="offset" />
          </mxGeometry>
        </mxCell>
        <mxCell id="yGlVAPs6SAe4qEw8EwWw-198" value="Does user wants to switch panel?" style="rhombus;whiteSpace=wrap;html=1;rounded=0;" vertex="1" parent="1">
          <mxGeometry x="755" y="430" width="280" height="80" as="geometry" />
        </mxCell>
        <mxCell id="yGlVAPs6SAe4qEw8EwWw-203" value="" style="edgeStyle=orthogonalEdgeStyle;rounded=0;orthogonalLoop=1;jettySize=auto;html=1;entryX=0;entryY=0.5;entryDx=0;entryDy=0;" edge="1" parent="1" source="yGlVAPs6SAe4qEw8EwWw-200" target="yGlVAPs6SAe4qEw8EwWw-60">
          <mxGeometry relative="1" as="geometry">
            <mxPoint x="2950" y="469.9999999999998" as="targetPoint" />
          </mxGeometry>
        </mxCell>
        <mxCell id="yGlVAPs6SAe4qEw8EwWw-200" value="Click on Brightness Panel" style="rounded=0;whiteSpace=wrap;html=1;" vertex="1" parent="1">
          <mxGeometry x="2690" y="440" width="120" height="60" as="geometry" />
        </mxCell>
        <mxCell id="yGlVAPs6SAe4qEw8EwWw-204" value="" style="endArrow=classic;html=1;rounded=0;exitX=0.5;exitY=1;exitDx=0;exitDy=0;entryX=0.995;entryY=0.656;entryDx=0;entryDy=0;entryPerimeter=0;" edge="1" parent="1" source="yGlVAPs6SAe4qEw8EwWw-66" target="yGlVAPs6SAe4qEw8EwWw-1">
          <mxGeometry width="50" height="50" relative="1" as="geometry">
            <mxPoint x="2060" y="1000" as="sourcePoint" />
            <mxPoint x="2110" y="950" as="targetPoint" />
            <Array as="points">
              <mxPoint x="3085" y="1030" />
              <mxPoint x="2120" y="1030" />
              <mxPoint x="2120" y="-50" />
            </Array>
          </mxGeometry>
        </mxCell>
        <mxCell id="yGlVAPs6SAe4qEw8EwWw-205" value="" style="endArrow=classic;html=1;rounded=0;exitX=0.5;exitY=0;exitDx=0;exitDy=0;entryX=1;entryY=0.5;entryDx=0;entryDy=0;" edge="1" parent="1" source="yGlVAPs6SAe4qEw8EwWw-86" target="yGlVAPs6SAe4qEw8EwWw-1">
          <mxGeometry width="50" height="50" relative="1" as="geometry">
            <mxPoint x="2820" y="130" as="sourcePoint" />
            <mxPoint x="2870" y="80" as="targetPoint" />
            <Array as="points">
              <mxPoint x="5060" y="-75" />
            </Array>
          </mxGeometry>
        </mxCell>
        <mxCell id="yGlVAPs6SAe4qEw8EwWw-237" value="" style="edgeStyle=orthogonalEdgeStyle;rounded=0;orthogonalLoop=1;jettySize=auto;html=1;" edge="1" parent="1" source="yGlVAPs6SAe4qEw8EwWw-210" target="yGlVAPs6SAe4qEw8EwWw-236">
          <mxGeometry relative="1" as="geometry" />
        </mxCell>
        <mxCell id="yGlVAPs6SAe4qEw8EwWw-260" value="" style="edgeStyle=orthogonalEdgeStyle;rounded=0;orthogonalLoop=1;jettySize=auto;html=1;" edge="1" parent="1" source="yGlVAPs6SAe4qEw8EwWw-210" target="yGlVAPs6SAe4qEw8EwWw-259">
          <mxGeometry relative="1" as="geometry" />
        </mxCell>
        <mxCell id="yGlVAPs6SAe4qEw8EwWw-261" value="the other two panels..." style="edgeLabel;html=1;align=center;verticalAlign=middle;resizable=0;points=[];" vertex="1" connectable="0" parent="yGlVAPs6SAe4qEw8EwWw-260">
          <mxGeometry x="-0.1912" y="-4" relative="1" as="geometry">
            <mxPoint as="offset" />
          </mxGeometry>
        </mxCell>
        <mxCell id="yGlVAPs6SAe4qEw8EwWw-210" value="Does user wants to adjust Effects?" style="rhombus;whiteSpace=wrap;html=1;rounded=0;" vertex="1" parent="1">
          <mxGeometry x="2290" y="1310" width="310" height="80" as="geometry" />
        </mxCell>
        <mxCell id="yGlVAPs6SAe4qEw8EwWw-213" value="Effect Panel Operations" style="swimlane;" vertex="1" parent="1">
          <mxGeometry x="2850" y="1230" width="1890" height="810" as="geometry" />
        </mxCell>
        <mxCell id="yGlVAPs6SAe4qEw8EwWw-215" value="" style="edgeStyle=orthogonalEdgeStyle;rounded=0;orthogonalLoop=1;jettySize=auto;html=1;" edge="1" parent="yGlVAPs6SAe4qEw8EwWw-213" source="yGlVAPs6SAe4qEw8EwWw-218" target="yGlVAPs6SAe4qEw8EwWw-220">
          <mxGeometry relative="1" as="geometry" />
        </mxCell>
        <mxCell id="yGlVAPs6SAe4qEw8EwWw-216" value="No" style="edgeLabel;html=1;align=center;verticalAlign=middle;resizable=0;points=[];" vertex="1" connectable="0" parent="yGlVAPs6SAe4qEw8EwWw-215">
          <mxGeometry x="-0.4216" y="2" relative="1" as="geometry">
            <mxPoint as="offset" />
          </mxGeometry>
        </mxCell>
        <mxCell id="yGlVAPs6SAe4qEw8EwWw-218" value="Does user wants to add red effect?" style="rhombus;whiteSpace=wrap;html=1;rounded=0;" vertex="1" parent="yGlVAPs6SAe4qEw8EwWw-213">
          <mxGeometry x="120" y="80" width="250" height="80" as="geometry" />
        </mxCell>
        <mxCell id="yGlVAPs6SAe4qEw8EwWw-219" value="No" style="edgeStyle=orthogonalEdgeStyle;rounded=0;orthogonalLoop=1;jettySize=auto;html=1;" edge="1" parent="yGlVAPs6SAe4qEw8EwWw-213" source="yGlVAPs6SAe4qEw8EwWw-220">
          <mxGeometry relative="1" as="geometry">
            <mxPoint x="245" y="300" as="targetPoint" />
          </mxGeometry>
        </mxCell>
        <mxCell id="yGlVAPs6SAe4qEw8EwWw-220" value="Does user wants to add green effect?" style="rhombus;whiteSpace=wrap;html=1;rounded=0;" vertex="1" parent="yGlVAPs6SAe4qEw8EwWw-213">
          <mxGeometry x="120" y="190" width="250" height="80" as="geometry" />
        </mxCell>
        <mxCell id="yGlVAPs6SAe4qEw8EwWw-226" value="" style="edgeStyle=orthogonalEdgeStyle;rounded=0;orthogonalLoop=1;jettySize=auto;html=1;exitX=1;exitY=0.5;exitDx=0;exitDy=0;" edge="1" parent="yGlVAPs6SAe4qEw8EwWw-213" source="yGlVAPs6SAe4qEw8EwWw-218" target="yGlVAPs6SAe4qEw8EwWw-229">
          <mxGeometry relative="1" as="geometry">
            <mxPoint x="715" y="120" as="sourcePoint" />
          </mxGeometry>
        </mxCell>
        <mxCell id="yGlVAPs6SAe4qEw8EwWw-228" value="" style="edgeStyle=orthogonalEdgeStyle;rounded=0;orthogonalLoop=1;jettySize=auto;html=1;" edge="1" parent="yGlVAPs6SAe4qEw8EwWw-213" source="yGlVAPs6SAe4qEw8EwWw-229" target="yGlVAPs6SAe4qEw8EwWw-230">
          <mxGeometry relative="1" as="geometry" />
        </mxCell>
        <mxCell id="yGlVAPs6SAe4qEw8EwWw-229" value="Press on Red Effect Button" style="whiteSpace=wrap;html=1;rounded=0;" vertex="1" parent="yGlVAPs6SAe4qEw8EwWw-213">
          <mxGeometry x="460" y="90" width="210" height="60" as="geometry" />
        </mxCell>
        <mxCell id="yGlVAPs6SAe4qEw8EwWw-230" value="Update respective layer setting for these buttons" style="whiteSpace=wrap;html=1;rounded=0;" vertex="1" parent="yGlVAPs6SAe4qEw8EwWw-213">
          <mxGeometry x="760" y="90" width="210" height="60" as="geometry" />
        </mxCell>
        <mxCell id="yGlVAPs6SAe4qEw8EwWw-232" value="" style="edgeStyle=orthogonalEdgeStyle;rounded=0;orthogonalLoop=1;jettySize=auto;html=1;" edge="1" parent="yGlVAPs6SAe4qEw8EwWw-213" source="yGlVAPs6SAe4qEw8EwWw-220" target="yGlVAPs6SAe4qEw8EwWw-234">
          <mxGeometry relative="1" as="geometry">
            <mxPoint x="715" y="230" as="sourcePoint" />
          </mxGeometry>
        </mxCell>
        <mxCell id="yGlVAPs6SAe4qEw8EwWw-234" value="Press on Green Effect Button" style="whiteSpace=wrap;html=1;rounded=0;" vertex="1" parent="yGlVAPs6SAe4qEw8EwWw-213">
          <mxGeometry x="460" y="200" width="210" height="60" as="geometry" />
        </mxCell>
        <mxCell id="yGlVAPs6SAe4qEw8EwWw-235" value="" style="curved=1;endArrow=classic;html=1;rounded=0;exitX=1;exitY=0.5;exitDx=0;exitDy=0;entryX=0.375;entryY=0.998;entryDx=0;entryDy=0;entryPerimeter=0;" edge="1" parent="yGlVAPs6SAe4qEw8EwWw-213" source="yGlVAPs6SAe4qEw8EwWw-234" target="yGlVAPs6SAe4qEw8EwWw-230">
          <mxGeometry width="50" height="50" relative="1" as="geometry">
            <mxPoint x="720" y="300" as="sourcePoint" />
            <mxPoint x="770" y="250" as="targetPoint" />
            <Array as="points">
              <mxPoint x="760" y="250" />
            </Array>
          </mxGeometry>
        </mxCell>
        <mxCell id="yGlVAPs6SAe4qEw8EwWw-239" value="" style="edgeStyle=orthogonalEdgeStyle;rounded=0;orthogonalLoop=1;jettySize=auto;html=1;" edge="1" parent="1" source="yGlVAPs6SAe4qEw8EwWw-236">
          <mxGeometry relative="1" as="geometry">
            <mxPoint x="2970" y="1350" as="targetPoint" />
          </mxGeometry>
        </mxCell>
        <mxCell id="yGlVAPs6SAe4qEw8EwWw-236" value="Click on Effect Panel" style="whiteSpace=wrap;html=1;rounded=0;" vertex="1" parent="1">
          <mxGeometry x="2710" y="1320" width="120" height="60" as="geometry" />
        </mxCell>
        <mxCell id="yGlVAPs6SAe4qEw8EwWw-242" value="" style="edgeStyle=orthogonalEdgeStyle;rounded=0;orthogonalLoop=1;jettySize=auto;html=1;" edge="1" parent="1" source="yGlVAPs6SAe4qEw8EwWw-251" target="yGlVAPs6SAe4qEw8EwWw-241">
          <mxGeometry relative="1" as="geometry" />
        </mxCell>
        <mxCell id="yGlVAPs6SAe4qEw8EwWw-245" value="" style="edgeStyle=orthogonalEdgeStyle;rounded=0;orthogonalLoop=1;jettySize=auto;html=1;" edge="1" parent="1" source="yGlVAPs6SAe4qEw8EwWw-240" target="yGlVAPs6SAe4qEw8EwWw-244">
          <mxGeometry relative="1" as="geometry" />
        </mxCell>
        <mxCell id="yGlVAPs6SAe4qEw8EwWw-240" value="Does user wants to adjust image by mouse?" style="rhombus;whiteSpace=wrap;html=1;" vertex="1" parent="1">
          <mxGeometry x="635" y="1270" width="520" height="150" as="geometry" />
        </mxCell>
        <mxCell id="yGlVAPs6SAe4qEw8EwWw-241" value="" style="shape=waypoint;sketch=0;size=6;pointerEvents=1;points=[];fillColor=default;resizable=0;rotatable=0;perimeter=centerPerimeter;snapToPoint=1;" vertex="1" parent="1">
          <mxGeometry x="1485" y="1335" width="20" height="20" as="geometry" />
        </mxCell>
        <mxCell id="yGlVAPs6SAe4qEw8EwWw-247" value="" style="edgeStyle=orthogonalEdgeStyle;rounded=0;orthogonalLoop=1;jettySize=auto;html=1;entryX=0.048;entryY=1.015;entryDx=0;entryDy=0;entryPerimeter=0;" edge="1" parent="1" source="yGlVAPs6SAe4qEw8EwWw-244" target="yGlVAPs6SAe4qEw8EwWw-1">
          <mxGeometry relative="1" as="geometry">
            <mxPoint x="610" y="1230" as="targetPoint" />
            <Array as="points">
              <mxPoint x="895" y="1740" />
              <mxPoint x="611" y="1740" />
              <mxPoint x="611" y="1230" />
            </Array>
          </mxGeometry>
        </mxCell>
        <mxCell id="yGlVAPs6SAe4qEw8EwWw-248" value="No" style="edgeLabel;html=1;align=center;verticalAlign=middle;resizable=0;points=[];" vertex="1" connectable="0" parent="yGlVAPs6SAe4qEw8EwWw-247">
          <mxGeometry x="-0.9336" y="-1" relative="1" as="geometry">
            <mxPoint as="offset" />
          </mxGeometry>
        </mxCell>
        <mxCell id="yGlVAPs6SAe4qEw8EwWw-244" value="Did user right click on image?" style="rhombus;whiteSpace=wrap;html=1;" vertex="1" parent="1">
          <mxGeometry x="635" y="1540" width="520" height="150" as="geometry" />
        </mxCell>
        <mxCell id="yGlVAPs6SAe4qEw8EwWw-249" value="" style="edgeStyle=orthogonalEdgeStyle;rounded=0;orthogonalLoop=1;jettySize=auto;html=1;" edge="1" parent="1" source="yGlVAPs6SAe4qEw8EwWw-240" target="yGlVAPs6SAe4qEw8EwWw-251">
          <mxGeometry relative="1" as="geometry">
            <mxPoint x="1155" y="1345" as="sourcePoint" />
            <mxPoint x="1495" y="1345" as="targetPoint" />
          </mxGeometry>
        </mxCell>
        <mxCell id="yGlVAPs6SAe4qEw8EwWw-250" value="Yes" style="edgeLabel;html=1;align=center;verticalAlign=middle;resizable=0;points=[];" vertex="1" connectable="0" parent="yGlVAPs6SAe4qEw8EwWw-249">
          <mxGeometry x="-0.7026" relative="1" as="geometry">
            <mxPoint as="offset" />
          </mxGeometry>
        </mxCell>
        <mxCell id="yGlVAPs6SAe4qEw8EwWw-251" value="Container" style="swimlane;" vertex="1" parent="1">
          <mxGeometry x="1530" y="1245" width="200" height="200" as="geometry" />
        </mxCell>
        <mxCell id="yGlVAPs6SAe4qEw8EwWw-254" value="" style="edgeStyle=orthogonalEdgeStyle;rounded=0;orthogonalLoop=1;jettySize=auto;html=1;" edge="1" parent="1" source="yGlVAPs6SAe4qEw8EwWw-244" target="yGlVAPs6SAe4qEw8EwWw-255">
          <mxGeometry relative="1" as="geometry">
            <mxPoint x="1155" y="1615" as="sourcePoint" />
            <mxPoint x="1495" y="1615" as="targetPoint" />
          </mxGeometry>
        </mxCell>
        <mxCell id="yGlVAPs6SAe4qEw8EwWw-255" value="Container" style="swimlane;" vertex="1" parent="1">
          <mxGeometry x="1590" y="1690" width="200" height="200" as="geometry" />
        </mxCell>
        <mxCell id="yGlVAPs6SAe4qEw8EwWw-259" value="" style="shape=waypoint;sketch=0;size=6;pointerEvents=1;points=[];fillColor=default;resizable=0;rotatable=0;perimeter=centerPerimeter;snapToPoint=1;rounded=0;" vertex="1" parent="1">
          <mxGeometry x="2435" y="1500" width="20" height="20" as="geometry" />
        </mxCell>
        <mxCell id="yGlVAPs6SAe4qEw8EwWw-86" value="Update Viewport Render" style="whiteSpace=wrap;html=1;rounded=0;fillColor=#f8cecc;strokeColor=#b85450;" vertex="1" parent="1">
          <mxGeometry x="4950" y="440" width="210" height="60" as="geometry" />
        </mxCell>
        <mxCell id="yGlVAPs6SAe4qEw8EwWw-87" value="" style="edgeStyle=orthogonalEdgeStyle;rounded=0;orthogonalLoop=1;jettySize=auto;html=1;curved=1;" edge="1" parent="1" source="yGlVAPs6SAe4qEw8EwWw-82" target="yGlVAPs6SAe4qEw8EwWw-86">
          <mxGeometry relative="1" as="geometry" />
        </mxCell>
        <mxCell id="yGlVAPs6SAe4qEw8EwWw-93" value="" style="curved=1;endArrow=classic;html=1;rounded=0;exitX=1;exitY=0.5;exitDx=0;exitDy=0;entryX=0;entryY=0.75;entryDx=0;entryDy=0;" edge="1" parent="1" source="yGlVAPs6SAe4qEw8EwWw-92" target="yGlVAPs6SAe4qEw8EwWw-86">
          <mxGeometry width="50" height="50" relative="1" as="geometry">
            <mxPoint x="3930" y="650" as="sourcePoint" />
            <mxPoint x="3980" y="600" as="targetPoint" />
            <Array as="points">
              <mxPoint x="3970" y="600" />
            </Array>
          </mxGeometry>
        </mxCell>
        <mxCell id="yGlVAPs6SAe4qEw8EwWw-262" value="" style="endArrow=classic;html=1;rounded=0;exitX=1;exitY=0.5;exitDx=0;exitDy=0;entryX=0.25;entryY=1;entryDx=0;entryDy=0;" edge="1" parent="1" source="yGlVAPs6SAe4qEw8EwWw-230" target="yGlVAPs6SAe4qEw8EwWw-86">
          <mxGeometry width="50" height="50" relative="1" as="geometry">
            <mxPoint x="4110" y="1260" as="sourcePoint" />
            <mxPoint x="4160" y="1210" as="targetPoint" />
          </mxGeometry>
        </mxCell>
        <mxCell id="yGlVAPs6SAe4qEw8EwWw-263" value="END" style="ellipse;whiteSpace=wrap;html=1;fontSize=36;" vertex="1" parent="1">
          <mxGeometry x="1090" y="-85" width="235" height="80" as="geometry" />
        </mxCell>
        <mxCell id="yGlVAPs6SAe4qEw8EwWw-268" value="" style="edgeStyle=orthogonalEdgeStyle;rounded=0;orthogonalLoop=1;jettySize=auto;html=1;" edge="1" parent="1" source="yGlVAPs6SAe4qEw8EwWw-266" target="yGlVAPs6SAe4qEw8EwWw-263">
          <mxGeometry relative="1" as="geometry" />
        </mxCell>
        <mxCell id="yGlVAPs6SAe4qEw8EwWw-270" value="" style="edgeStyle=orthogonalEdgeStyle;rounded=0;orthogonalLoop=1;jettySize=auto;html=1;entryX=0.5;entryY=0;entryDx=0;entryDy=0;" edge="1" parent="1" source="yGlVAPs6SAe4qEw8EwWw-266" target="yGlVAPs6SAe4qEw8EwWw-16">
          <mxGeometry relative="1" as="geometry">
            <mxPoint x="895" y="115" as="targetPoint" />
          </mxGeometry>
        </mxCell>
        <mxCell id="yGlVAPs6SAe4qEw8EwWw-266" value="User pressed close button&amp;nbsp;&lt;div&gt;or close software&lt;/div&gt;" style="rhombus;whiteSpace=wrap;html=1;rounded=0;" vertex="1" parent="1">
          <mxGeometry x="780" y="-85" width="230" height="80" as="geometry" />
        </mxCell>
      </root>
    </mxGraphModel>
  </diagram>
</mxfile>
